<svg width="59" height="61" viewBox="0 0 59 61" fill="none" xmlns="http://www.w3.org/2000/svg">
<circle cx="21.3085" cy="15.3085" r="2.30851" transform="rotate(-90 21.3085 15.3085)" fill="white"/>
<circle cx="28.8936" cy="15.3085" r="2.30851" transform="rotate(-90 28.8936 15.3085)" fill="white"/>
<circle cx="36.4787" cy="15.3085" r="2.30851" transform="rotate(-90 36.4787 15.3085)" fill="white"/>
<rect x="12.5" y="1.5" width="33" height="26" rx="5.5" stroke="white" stroke-width="3"/>
<path d="M11.8518 24.4328L19.0137 29.0649L7.14606 31.5466L11.8518 24.4328Z" fill="white"/>
<path d="M13.6642 42.974C13.1362 42.818 12.7042 42.698 12.3682 42.614C12.0322 42.518 11.6002 42.47 11.0722 42.47C10.1002 42.47 9.35022 42.866 8.82222 43.658C8.29422 44.45 8.03022 45.536 8.03022 46.916C8.03022 48.104 8.25222 49.13 8.69622 49.994C9.14022 50.858 9.88422 51.29 10.9282 51.29C11.4442 51.29 11.9242 51.236 12.3682 51.128C12.8242 51.02 13.2382 50.888 13.6102 50.732L14.4922 52.46C14.0242 52.7 13.4602 52.892 12.8002 53.036C12.1402 53.18 11.5582 53.252 11.0542 53.252C9.14622 53.252 7.76022 52.64 6.89622 51.416C6.03222 50.192 5.60022 48.698 5.60022 46.934C5.60022 45.05 6.07422 43.508 7.02222 42.308C7.98222 41.108 9.35622 40.508 11.1442 40.508C11.5042 40.508 12.0022 40.568 12.6382 40.688C13.2742 40.808 13.8562 41.012 14.3842 41.3L13.6642 42.974ZM20.3921 53.216C19.0121 53.204 17.9321 52.784 17.1521 51.956C16.3841 51.128 16.0001 50.012 16.0001 48.608C16.0001 47.216 16.4021 46.106 17.2061 45.278C18.0221 44.45 19.1321 44.036 20.5361 44.036C21.9881 44.036 23.1101 44.468 23.9021 45.332C24.7061 46.184 25.1081 47.306 25.1081 48.698C25.1081 50.09 24.6761 51.188 23.8121 51.992C22.9481 52.796 21.8081 53.204 20.3921 53.216ZM22.6961 48.698C22.6961 47.87 22.5101 47.222 22.1381 46.754C21.7781 46.274 21.2621 46.034 20.5901 46.034C19.9061 46.034 19.3721 46.244 18.9881 46.664C18.6041 47.084 18.4121 47.726 18.4121 48.59C18.4121 49.454 18.5741 50.108 18.8981 50.552C19.2341 50.996 19.7441 51.218 20.4281 51.218C21.1001 51.218 21.6461 51.02 22.0661 50.624C22.4861 50.216 22.6961 49.574 22.6961 48.698ZM28.7233 50.39C28.7233 50.642 28.8253 50.87 29.0293 51.074C29.2333 51.266 29.5033 51.362 29.8393 51.362C30.1633 51.362 30.4873 51.29 30.8113 51.146C31.1473 51.002 31.4653 50.786 31.7653 50.498V49.166H30.0013C29.5933 49.166 29.2753 49.292 29.0473 49.544C28.8313 49.796 28.7233 50.078 28.7233 50.39ZM29.8753 53.216C28.8073 53.216 28.0153 52.958 27.4993 52.442C26.9833 51.914 26.7253 51.23 26.7253 50.39C26.7253 49.49 27.0313 48.8 27.6433 48.32C28.2553 47.84 29.0533 47.6 30.0373 47.6H31.7473C31.7353 47.156 31.6033 46.814 31.3513 46.574C31.1113 46.322 30.7753 46.196 30.3433 46.196C29.9353 46.196 29.4913 46.256 29.0113 46.376C28.5313 46.484 28.1293 46.616 27.8053 46.772L27.1753 44.828C27.5113 44.6 28.0213 44.414 28.7053 44.27C29.4013 44.114 29.9353 44.036 30.3073 44.036C31.3513 44.036 32.2453 44.342 32.9893 44.954C33.7333 45.554 34.1053 46.322 34.1053 47.258V53H32.8993L32.3233 52.262C31.9993 52.514 31.6153 52.736 31.1713 52.928C30.7393 53.12 30.3073 53.216 29.8753 53.216ZM40.4166 46.034C39.7566 46.034 39.2406 46.286 38.8686 46.79C38.4966 47.282 38.3106 47.9 38.3106 48.644C38.3106 49.4 38.4966 50.018 38.8686 50.498C39.2406 50.978 39.7566 51.218 40.4166 51.218C40.8246 51.218 41.1906 51.17 41.5146 51.074C41.8506 50.966 42.2286 50.816 42.6486 50.624L43.3146 52.316C42.9066 52.628 42.4086 52.856 41.8206 53C41.2446 53.144 40.7706 53.216 40.3986 53.216C38.9826 53.216 37.8786 52.802 37.0866 51.974C36.2946 51.146 35.8986 50.036 35.8986 48.644C35.8986 47.252 36.2946 46.136 37.0866 45.296C37.8786 44.456 38.9826 44.036 40.3986 44.036C40.7706 44.036 41.2386 44.114 41.8026 44.27C42.3786 44.426 42.8826 44.654 43.3146 44.954L42.6486 46.628C42.2286 46.436 41.8506 46.292 41.5146 46.196C41.1906 46.088 40.8246 46.034 40.4166 46.034ZM47.4605 44.846C47.8445 44.546 48.2825 44.318 48.7745 44.162C49.2785 44.006 49.7285 43.928 50.1245 43.928C51.3125 43.928 52.1525 44.276 52.6445 44.972C53.1485 45.668 53.4005 46.52 53.4005 47.528V53H51.0605V47.636C51.0605 47.084 50.9285 46.664 50.6645 46.376C50.4005 46.076 50.0105 45.926 49.4945 45.926C49.1585 45.926 48.8105 46.016 48.4505 46.196C48.0905 46.364 47.7605 46.562 47.4605 46.79V53H45.1385V40.49L47.4605 40.292V44.846Z" fill="white"/>
</svg>
