<svg width="59" height="62" viewBox="0 0 59 62" fill="none" xmlns="http://www.w3.org/2000/svg">
<rect x="15.5" y="1.5" width="26.2632" height="33" rx="3.5" stroke="#B5B5B5" stroke-width="3"/>
<path d="M20.3158 7.57894H37.1579V10.9474H20.3158V7.57894Z" fill="#B5B5B5"/>
<path d="M20.3158 14.7368H37.1579V18.1052H20.3158V14.7368Z" fill="#B5B5B5"/>
<path d="M20.3158 21.8947H33.7895V25.2631H20.3158V21.8947Z" fill="#B5B5B5"/>
<path d="M9.40848 54V41.76H13.2425C14.5745 41.76 15.7145 42.066 16.6625 42.678C17.6105 43.278 18.0845 44.28 18.0845 45.684C18.0725 47.076 17.5565 48.102 16.5365 48.762C15.5285 49.41 14.3765 49.734 13.0805 49.734H11.7305V54H9.40848ZM13.1705 43.704H11.7305V47.808H13.2065C13.9025 47.808 14.4665 47.652 14.8985 47.34C15.3305 47.016 15.5705 46.512 15.6185 45.828C15.6185 45.036 15.4025 44.484 14.9705 44.172C14.5385 43.86 13.9385 43.704 13.1705 43.704ZM22.3941 41.292V54H20.0721V41.49L22.3941 41.292ZM26.4733 51.39C26.4733 51.642 26.5753 51.87 26.7793 52.074C26.9833 52.266 27.2533 52.362 27.5893 52.362C27.9133 52.362 28.2373 52.29 28.5613 52.146C28.8973 52.002 29.2153 51.786 29.5153 51.498V50.166H27.7513C27.3433 50.166 27.0253 50.292 26.7973 50.544C26.5813 50.796 26.4733 51.078 26.4733 51.39ZM27.6253 54.216C26.5573 54.216 25.7653 53.958 25.2493 53.442C24.7333 52.914 24.4753 52.23 24.4753 51.39C24.4753 50.49 24.7813 49.8 25.3933 49.32C26.0053 48.84 26.8033 48.6 27.7873 48.6H29.4973C29.4853 48.156 29.3533 47.814 29.1013 47.574C28.8613 47.322 28.5253 47.196 28.0933 47.196C27.6853 47.196 27.2413 47.256 26.7613 47.376C26.2813 47.484 25.8793 47.616 25.5553 47.772L24.9253 45.828C25.2613 45.6 25.7713 45.414 26.4553 45.27C27.1513 45.114 27.6853 45.036 28.0573 45.036C29.1013 45.036 29.9953 45.342 30.7393 45.954C31.4833 46.554 31.8553 47.322 31.8553 48.258V54H30.6493L30.0733 53.262C29.7493 53.514 29.3653 53.736 28.9213 53.928C28.4893 54.12 28.0573 54.216 27.6253 54.216ZM35.9346 46.206C36.3306 45.81 36.8226 45.498 37.4106 45.27C38.0106 45.042 38.5446 44.928 39.0126 44.928C40.2006 44.928 41.0406 45.276 41.5326 45.972C42.0366 46.668 42.2886 47.52 42.2886 48.528V54H39.9486V48.636C39.9486 48.084 39.8166 47.664 39.5526 47.376C39.2886 47.076 38.9046 46.926 38.4006 46.926C38.0646 46.926 37.7106 47.016 37.3386 47.196C36.9786 47.364 36.6486 47.562 36.3486 47.79V54H34.0086V45.27H35.2326L35.9346 46.206ZM49.58 47.628C49.16 47.436 48.77 47.292 48.41 47.196C48.05 47.088 47.666 47.034 47.258 47.034C46.958 47.034 46.724 47.094 46.556 47.214C46.4 47.322 46.322 47.478 46.322 47.682C46.322 47.826 46.418 47.964 46.61 48.096C46.814 48.228 47.138 48.372 47.582 48.528C48.314 48.792 48.992 49.164 49.616 49.644C50.24 50.112 50.552 50.724 50.552 51.48C50.552 52.344 50.24 53.016 49.616 53.496C49.004 53.976 48.104 54.216 46.916 54.216C46.544 54.216 46.046 54.144 45.422 54C44.81 53.856 44.3 53.628 43.892 53.316L44.594 51.624C45.014 51.816 45.416 51.966 45.8 52.074C46.196 52.17 46.556 52.218 46.88 52.218C47.312 52.218 47.642 52.158 47.87 52.038C48.098 51.918 48.212 51.762 48.212 51.57C48.212 51.33 48.098 51.114 47.87 50.922C47.642 50.73 47.282 50.556 46.79 50.4C46.094 50.172 45.434 49.848 44.81 49.428C44.198 48.996 43.892 48.42 43.892 47.7C43.892 46.872 44.198 46.224 44.81 45.756C45.422 45.276 46.25 45.036 47.294 45.036C47.666 45.036 48.146 45.114 48.734 45.27C49.322 45.426 49.838 45.654 50.282 45.954L49.58 47.628Z" fill="#B5B5B5"/>
</svg>
