<svg width="59" height="65" viewBox="0 0 59 65" fill="none" xmlns="http://www.w3.org/2000/svg">
<mask id="mask0_21_177" style="mask-type:alpha" maskUnits="userSpaceOnUse" x="9" y="0" width="39" height="39">
<circle cx="28.5" cy="19.5" r="18" fill="#D9D9D9" stroke="white" stroke-width="3"/>
</mask>
<g mask="url(#mask0_21_177)">
<ellipse cx="28.5" cy="35.1951" rx="9.9878" ry="14.2683" fill="#B5B5B5"/>
<circle cx="28.5" cy="15.6951" r="6.18293" fill="#B5B5B5"/>
<circle cx="28.5" cy="19.5" r="18" stroke="#B5B5B5" stroke-width="3"/>
</g>
<path d="M4.06473 57V44.76H7.89873C9.23073 44.76 10.3707 45.066 11.3187 45.678C12.2667 46.278 12.7407 47.28 12.7407 48.684C12.7287 50.076 12.2127 51.102 11.1927 51.762C10.1847 52.41 9.03273 52.734 7.73673 52.734H6.38673V57H4.06473ZM7.82673 46.704H6.38673V50.808H7.86273C8.55873 50.808 9.12273 50.652 9.55473 50.34C9.98673 50.016 10.2267 49.512 10.2747 48.828C10.2747 48.036 10.0587 47.484 9.62673 47.172C9.19473 46.86 8.59473 46.704 7.82673 46.704ZM19.3903 48.27L19.8583 50.142C19.4623 50.142 19.0003 50.256 18.4723 50.484C17.9563 50.712 17.4463 51.048 16.9423 51.492V57H14.6023V48.27H15.8263L16.6003 49.548C16.9603 49.236 17.3983 48.948 17.9143 48.684C18.4303 48.408 18.9223 48.27 19.3903 48.27ZM25.0855 57.216C23.7055 57.204 22.6255 56.784 21.8455 55.956C21.0775 55.128 20.6935 54.012 20.6935 52.608C20.6935 51.216 21.0955 50.106 21.8995 49.278C22.7155 48.45 23.8255 48.036 25.2295 48.036C26.6815 48.036 27.8035 48.468 28.5955 49.332C29.3995 50.184 29.8015 51.306 29.8015 52.698C29.8015 54.09 29.3695 55.188 28.5055 55.992C27.6415 56.796 26.5015 57.204 25.0855 57.216ZM27.3895 52.698C27.3895 51.87 27.2035 51.222 26.8315 50.754C26.4715 50.274 25.9555 50.034 25.2835 50.034C24.5995 50.034 24.0655 50.244 23.6815 50.664C23.2975 51.084 23.1055 51.726 23.1055 52.59C23.1055 53.454 23.2675 54.108 23.5915 54.552C23.9275 54.996 24.4375 55.218 25.1215 55.218C25.7935 55.218 26.3395 55.02 26.7595 54.624C27.1795 54.216 27.3895 53.574 27.3895 52.698ZM32.0127 47.622C32.0127 46.614 32.3067 45.822 32.8947 45.246C33.4947 44.658 34.3347 44.364 35.4147 44.364C35.6907 44.364 36.0027 44.418 36.3507 44.526C36.6987 44.634 36.9687 44.766 37.1607 44.922L36.4947 46.614C36.3147 46.542 36.1407 46.488 35.9727 46.452C35.8167 46.404 35.6667 46.38 35.5227 46.38C35.1147 46.38 34.8147 46.53 34.6227 46.83C34.4427 47.118 34.3527 47.49 34.3527 47.946V48.45H36.0087L36.7467 50.268H34.3527V57H32.0127V50.268H30.6627V48.45H32.0127V47.622ZM39.538 44.4C39.91 44.4 40.222 44.526 40.474 44.778C40.738 45.03 40.87 45.342 40.87 45.714C40.87 46.086 40.738 46.398 40.474 46.65C40.222 46.902 39.91 47.028 39.538 47.028C39.178 47.028 38.872 46.902 38.62 46.65C38.368 46.398 38.242 46.086 38.242 45.714C38.242 45.342 38.368 45.03 38.62 44.778C38.872 44.526 39.178 44.4 39.538 44.4ZM40.708 48.27V57H38.368V48.27H40.708ZM45.4214 44.292V57H43.0994V44.49L45.4214 44.292ZM52.2727 57.216C50.7607 57.216 49.5667 56.802 48.6907 55.974C47.8267 55.146 47.3947 54.036 47.3947 52.644C47.3947 51.252 47.7847 50.136 48.5647 49.296C49.3567 48.456 50.4307 48.036 51.7867 48.036C53.1547 48.036 54.1567 48.492 54.7927 49.404C55.4407 50.304 55.7647 51.372 55.7647 52.608V53.328H49.8787C49.9867 53.904 50.2507 54.366 50.6707 54.714C51.0907 55.05 51.6427 55.218 52.3267 55.218C52.7227 55.218 53.0767 55.17 53.3887 55.074C53.7127 54.966 54.0847 54.816 54.5047 54.624L55.1887 56.316C54.7807 56.628 54.2827 56.856 53.6947 57C53.1187 57.144 52.6447 57.216 52.2727 57.216ZM53.5507 51.762C53.4307 51.174 53.2147 50.742 52.9027 50.466C52.5907 50.178 52.2007 50.034 51.7327 50.034C51.2527 50.034 50.8507 50.184 50.5267 50.484C50.2027 50.772 49.9927 51.198 49.8967 51.762H53.5507Z" fill="#B5B5B5"/>
</svg>
